<?xml version="1.0"?>
<svg version="1.1" xmlns="http://www.w3.org/2000/svg" xmlns:xlink="http://www.w3.org/1999/xlink" width="800" height="330">
    <desc iVinci="yes" version="4.6" gridStep="20" showGrid="yes" snapToGrid="no" codePlatform="0"/>
    <g id="Layer1" name="Layer 1" opacity="1">
        <g id="Shape1">
            <desc shapeID="1" type="0" basicInfo-basicType="0" basicInfo-roundedRectRadius="12" basicInfo-polygonSides="6" basicInfo-starPoints="5" bounding="rect(-41.4668,-41.4628,82.9336,82.9256)" text="" font-familyName="" font-pixelSize="20" font-bold="0" font-underline="0" font-alignment="1" strokeStyle="0" markerStart="0" markerEnd="0" shadowEnabled="0" shadowOffsetX="0" shadowOffsetY="2" shadowBlur="4" shadowOpacity="160" blurEnabled="0" blurRadius="4" transform="matrix(1,0,0,1,5808.82,42.088)" pers-center="0,0" pers-size="0,0" pers-start="0,0" pers-end="0,0" locked="0" mesh="" flag=""/>
            <path id="shapePath1" d="M5850.29,42.088 C5850.29,64.9875 5831.74,83.5508 5808.82,83.5508 C5785.91,83.5508 5767.36,64.9875 5767.36,42.088 C5767.36,19.1925 5785.91,0.625229 5808.82,0.625229 C5831.74,0.625229 5850.29,19.1925 5850.29,42.088 Z" style="stroke:#4a4648;stroke-opacity:1;stroke-width:3.09886;stroke-linejoin:;stroke-miterlimit:2;stroke-linecap:butt;fill:none;"/>
        </g>
        <g id="Shape2">
            <desc shapeID="2" type="0" basicInfo-basicType="0" basicInfo-roundedRectRadius="12" basicInfo-polygonSides="6" basicInfo-starPoints="5" bounding="rect(-41.4668,-41.4628,82.9336,82.9256)" text="" font-familyName="" font-pixelSize="20" font-bold="0" font-underline="0" font-alignment="1" strokeStyle="0" markerStart="0" markerEnd="0" shadowEnabled="0" shadowOffsetX="0" shadowOffsetY="2" shadowBlur="4" shadowOpacity="160" blurEnabled="0" blurRadius="4" transform="matrix(1,0,0,1,5875.06,42.088)" pers-center="0,0" pers-size="0,0" pers-start="0,0" pers-end="0,0" locked="0" mesh="" flag=""/>
            <path id="shapePath2" d="M5916.52,42.088 C5916.52,64.9875 5897.97,83.5508 5875.06,83.5508 C5852.19,83.5508 5833.59,64.9875 5833.59,42.088 C5833.59,19.1925 5852.19,0.625229 5875.06,0.625229 C5897.97,0.625229 5916.52,19.1925 5916.52,42.088 Z" style="stroke:#4a4648;stroke-opacity:1;stroke-width:3.09886;stroke-linejoin:;stroke-miterlimit:2;stroke-linecap:butt;fill:none;"/>
        </g>
        <g id="Shape3">
            <desc shapeID="3" type="0" basicInfo-basicType="0" basicInfo-roundedRectRadius="12" basicInfo-polygonSides="6" basicInfo-starPoints="5" bounding="rect(-65.0874,-114.311,130.175,228.621)" text="" font-familyName="" font-pixelSize="20" font-bold="0" font-underline="0" font-alignment="1" strokeStyle="0" markerStart="0" markerEnd="0" shadowEnabled="0" shadowOffsetX="0" shadowOffsetY="2" shadowBlur="4" shadowOpacity="160" blurEnabled="0" blurRadius="4" transform="matrix(1,0,0,1,65.0874,114.936)" pers-center="0,0" pers-size="0,0" pers-start="0,0" pers-end="0,0" locked="0" mesh="" flag=""/>
            <path id="shapePath3" d="M-7.62939e-06,140.071 C-7.62939e-06,189.322 39.9214,229.247 89.1662,229.247 C103.959,229.247 117.895,225.621 130.175,219.247 C119.443,211.01 110.432,200.634 103.77,188.772 C99.1432,190.159 94.2446,190.909 89.1662,190.909 C61.0922,190.909 38.3331,168.147 38.3331,140.071 L38.3331,90.5967 L89.1662,90.5967 L89.1662,50.9099 L38.3331,50.9099 L38.3331,0.625366 L-7.62939e-06,0.625366 L-7.62939e-06,140.071 Z" style="stroke:none;fill-rule:nonzero;fill:#201b18;fill-opacity:1;"/>
        </g>
        <g id="Shape4">
            <desc shapeID="4" type="0" basicInfo-basicType="0" basicInfo-roundedRectRadius="12" basicInfo-polygonSides="6" basicInfo-starPoints="5" bounding="rect(-89.1658,-114.586,178.332,229.172)" text="" font-familyName="" font-pixelSize="20" font-bold="0" font-underline="0" font-alignment="1" strokeStyle="0" markerStart="0" markerEnd="0" shadowEnabled="0" shadowOffsetX="0" shadowOffsetY="2" shadowBlur="4" shadowOpacity="160" blurEnabled="0" blurRadius="4" transform="matrix(1,0,0,1,708.76,115.211)" pers-center="0,0" pers-size="0,0" pers-start="0,0" pers-end="0,0" locked="0" mesh="" flag=""/>
            <path id="shapePath4" d="M657.927,140.621 C657.927,112.547 680.685,89.7975 708.76,89.7975 C736.835,89.7975 759.593,112.547 759.593,140.621 C759.593,168.697 736.835,191.459 708.76,191.459 C680.685,191.459 657.927,168.697 657.927,140.621 M619.594,140.621 C619.594,189.872 659.516,229.797 708.76,229.797 C758.004,229.797 797.926,189.872 797.926,140.621 C797.926,112.234 784.635,86.9598 763.958,70.6216 C784.635,54.2974 797.926,29.0204 797.926,0.625366 L759.593,0.625366 C759.593,28.7006 736.835,51.4597 708.76,51.4597 C659.516,51.4597 619.594,91.3844 619.594,140.621 Z" style="stroke:none;fill-rule:nonzero;fill:#f36618;fill-opacity:1;"/>
        </g>
        <g id="Shape5">
            <desc shapeID="5" type="0" basicInfo-basicType="0" basicInfo-roundedRectRadius="12" basicInfo-polygonSides="6" basicInfo-starPoints="5" bounding="rect(-31.1344,-15.0879,62.2688,30.1759)" text="" font-familyName="" font-pixelSize="20" font-bold="0" font-underline="0" font-alignment="1" strokeStyle="0" markerStart="0" markerEnd="0" shadowEnabled="0" shadowOffsetX="0" shadowOffsetY="2" shadowBlur="4" shadowOpacity="160" blurEnabled="0" blurRadius="4" transform="matrix(1,0,0,1,744.364,85.7095)" pers-center="0,0" pers-size="0,0" pers-start="0,0" pers-end="0,0" locked="0" mesh="" flag=""/>
            <path id="shapePath5" d="M716.174,90.3348 L713.229,89.9851 C731.2,88.5088 750.594,81.1851 763.958,70.6216 C768.12,73.9103 771.985,77.5592 775.498,81.5223 C765.531,90.4091 753.551,97.0836 740.332,100.797 C733.491,95.3726 725.222,91.6599 716.174,90.3348 Z" style="stroke:none;fill-rule:nonzero;fill:#f0401e;fill-opacity:1;"/>
        </g>
        <g id="Shape6">
            <desc shapeID="6" type="0" basicInfo-basicType="0" basicInfo-roundedRectRadius="12" basicInfo-polygonSides="6" basicInfo-starPoints="5" bounding="rect(-89.167,-140.003,178.334,280.006)" text="" font-familyName="" font-pixelSize="20" font-bold="0" font-underline="0" font-alignment="1" strokeStyle="0" markerStart="0" markerEnd="0" shadowEnabled="0" shadowOffsetX="0" shadowOffsetY="2" shadowBlur="4" shadowOpacity="160" blurEnabled="0" blurRadius="4" transform="matrix(1,0,0,1,470.833,190.294)" pers-center="0,0" pers-size="0,0" pers-start="0,0" pers-end="0,0" locked="0" mesh="" flag=""/>
            <path id="shapePath6" d="M521.667,50.2906 L521.667,66.2098 C507.242,56.1868 489.732,50.2906 470.834,50.2906 C446.305,50.2906 424.099,60.1968 407.976,76.2216 C416.806,86.9852 423.442,99.6093 427.181,113.409 C436.055,98.5725 452.283,88.6221 470.834,88.6221 C498.909,88.6221 521.667,111.385 521.667,139.46 C521.667,167.534 498.909,190.296 470.834,190.296 C454.473,190.296 439.927,182.559 430.63,170.547 L430.63,219.035 C442.715,225.159 456.365,228.621 470.834,228.621 C489.732,228.621 507.242,222.735 521.667,212.698 L521.667,241.121 C521.667,269.196 498.909,291.959 470.834,291.959 C442.759,291.959 419.997,269.196 419.997,241.121 L381.666,241.121 C381.666,290.372 421.586,330.297 470.834,330.297 C520.078,330.297 560,290.372 560,241.121 L560,50.2906 L521.667,50.2906 Z" style="stroke:none;fill-rule:nonzero;fill:#201b18;fill-opacity:1;"/>
        </g>
        <g id="Shape7">
            <desc shapeID="7" type="0" basicInfo-basicType="0" basicInfo-roundedRectRadius="12" basicInfo-polygonSides="6" basicInfo-starPoints="5" bounding="rect(-76.0027,-89.1652,152.005,178.33)" text="" font-familyName="" font-pixelSize="20" font-bold="0" font-underline="0" font-alignment="1" strokeStyle="0" markerStart="0" markerEnd="0" shadowEnabled="0" shadowOffsetX="0" shadowOffsetY="2" shadowBlur="4" shadowOpacity="160" blurEnabled="0" blurRadius="4" transform="matrix(1,0,0,1,343.994,139.456)" pers-center="0,0" pers-size="0,0" pers-start="0,0" pers-end="0,0" locked="0" mesh="" flag=""/>
            <path id="shapePath7" d="M400.834,84.2592 C384.504,63.5847 359.228,50.2906 330.833,50.2906 C306.304,50.2906 284.109,60.2097 267.991,76.2466 C276.82,86.9977 283.433,99.6346 287.166,113.434 C296.038,98.5725 312.271,88.6221 330.833,88.6221 C358.907,88.6221 381.666,111.385 381.666,139.46 L381.666,228.621 L419.997,228.621 L419.997,139.46 C419.997,118.609 412.825,99.447 400.834,84.2592 Z" style="stroke:none;fill-rule:nonzero;fill:#201b18;fill-opacity:1;"/>
        </g>
        <g id="Shape8">
            <desc shapeID="8" type="0" basicInfo-basicType="0" basicInfo-roundedRectRadius="12" basicInfo-polygonSides="6" basicInfo-starPoints="5" bounding="rect(-19.1667,-22.2123,38.3334,44.4244)" text="" font-familyName="" font-pixelSize="20" font-bold="0" font-underline="0" font-alignment="1" strokeStyle="0" markerStart="0" markerEnd="0" shadowEnabled="0" shadowOffsetX="0" shadowOffsetY="2" shadowBlur="4" shadowOpacity="160" blurEnabled="0" blurRadius="4" transform="matrix(1,0,0,1,260.833,206.409)" pers-center="0,0" pers-size="0,0" pers-start="0,0" pers-end="0,0" locked="0" mesh="" flag=""/>
            <path id="shapePath8" d="M241.666,225.284 L241.666,228.621 L280,228.621 L280,184.197 C271.396,201.272 258.041,215.559 241.666,225.284 Z" style="stroke:none;fill-rule:nonzero;fill:#201b18;fill-opacity:1;"/>
        </g>
        <g id="Shape9">
            <desc shapeID="9" type="0" basicInfo-basicType="0" basicInfo-roundedRectRadius="12" basicInfo-polygonSides="6" basicInfo-starPoints="5" bounding="rect(-89.167,-89.1652,178.334,178.33)" text="" font-familyName="" font-pixelSize="20" font-bold="0" font-underline="0" font-alignment="1" strokeStyle="0" markerStart="0" markerEnd="0" shadowEnabled="0" shadowOffsetX="0" shadowOffsetY="2" shadowBlur="4" shadowOpacity="160" blurEnabled="0" blurRadius="4" transform="matrix(1,0,0,1,190.833,139.456)" pers-center="0,0" pers-size="0,0" pers-start="0,0" pers-end="0,0" locked="0" mesh="" flag=""/>
            <path id="shapePath9" d="M139.999,139.46 C139.999,111.385 162.758,88.6221 190.834,88.6221 C197.837,88.6221 204.51,90.0464 210.582,92.5978 L143.979,159.209 C141.416,153.134 139.999,146.459 139.999,139.46 M271.239,100.871 L240.988,131.122 C241.433,133.835 241.666,136.622 241.666,139.46 C241.666,167.534 218.907,190.296 190.834,190.296 C183.831,190.296 177.16,188.872 171.09,186.31 L265.971,91.4348 C250.125,66.6838 222.393,50.2906 190.834,50.2906 C141.589,50.2906 101.666,90.209 101.666,139.46 C101.666,188.697 141.589,228.621 190.834,228.621 C240.078,228.621 280,188.697 280,139.46 C280,125.635 276.855,112.547 271.239,100.871 Z" style="stroke:none;fill-rule:nonzero;fill:#201b18;fill-opacity:1;"/>
        </g>
        <g id="Shape10">
            <desc shapeID="10" type="0" basicInfo-basicType="0" basicInfo-roundedRectRadius="12" basicInfo-polygonSides="6" basicInfo-starPoints="5" bounding="rect(-19.1674,-89.1654,38.3347,178.331)" text="" font-familyName="" font-pixelSize="20" font-bold="0" font-underline="0" font-alignment="1" strokeStyle="0" markerStart="0" markerEnd="0" shadowEnabled="0" shadowOffsetX="0" shadowOffsetY="2" shadowBlur="4" shadowOpacity="160" blurEnabled="0" blurRadius="4" transform="matrix(1,0,0,1,589.796,139.456)" pers-center="0,0" pers-size="0,0" pers-start="0,0" pers-end="0,0" locked="0" mesh="" flag=""/>
            <path id="shapePath10" d="M570.629,228.621 L608.963,228.621 L608.963,50.2903 L570.629,50.2903 L570.629,228.621 Z" style="stroke:none;fill-rule:nonzero;fill:#201b18;fill-opacity:1;"/>
        </g>
        <g id="Shape11">
            <desc shapeID="11" type="0" basicInfo-basicType="0" basicInfo-roundedRectRadius="12" basicInfo-polygonSides="6" basicInfo-starPoints="5" bounding="rect(-19.1674,-19.1674,38.3347,38.3347)" text="" font-familyName="" font-pixelSize="20" font-bold="0" font-underline="0" font-alignment="1" strokeStyle="0" markerStart="0" markerEnd="0" shadowEnabled="0" shadowOffsetX="0" shadowOffsetY="2" shadowBlur="4" shadowOpacity="160" blurEnabled="0" blurRadius="4" transform="matrix(1,0,0,1,589.796,19.7926)" pers-center="0,0" pers-size="0,0" pers-start="0,0" pers-end="0,0" locked="0" mesh="" flag=""/>
            <path id="shapePath11" d="M570.629,38.96 L608.963,38.96 L608.963,0.625244 L570.629,0.625244 L570.629,38.96 Z" style="stroke:none;fill-rule:nonzero;fill:#201b18;fill-opacity:1;"/>
        </g>
    </g>
</svg>
