<?xml version="1.0" encoding="utf-8"?>
<!-- Generator: Adobe Illustrator 19.1.0, SVG Export Plug-In . SVG Version: 6.00 Build 0)  -->
<svg version="1.0" id="Layer_1" xmlns="http://www.w3.org/2000/svg" xmlns:xlink="http://www.w3.org/1999/xlink" x="0px" y="0px"
	 viewBox="-102 224.3 636.8 148" enable-background="new -102 224.3 636.8 148" xml:space="preserve">
<g id="XMLID_10_">
	<path id="XMLID_22_" fill="#14233C" d="M127.5,334.4v-65.5h17.4v8.8c4-6.7,9.9-10,17.8-10s13.9,3.4,18.2,10.5
		c6.8-7.2,12.1-10.5,20.3-10.5c14.8,0,23.1,8.3,23.1,23.5v43.2h-18.8v-35.5c0-9.2-2-13.3-9.2-13.3c-7.3,0-11.2,4.5-11.2,13.3v35.5
		h-18.9v-35.5c0-9.2-2-13.3-9.2-13.3c-7.3,0-11.2,4.5-11.2,13.3v35.5H127.5z"/>
	<path id="XMLID_19_" fill="#14233C" d="M245,277.4c6.6-6.6,15.3-10.2,24.2-10.2c9.5,0,17.7,3.3,24.3,9.5c7,6.6,10.7,15.6,10.7,24.5
		c0,9.9-3.3,18.1-9.9,24.6c-6.7,6.7-15,10.2-24.9,10.2c-10,0-18.1-3.4-24.8-10.5c-6.3-6.6-9.6-15-9.6-24.2
		C235,292.1,238.5,283.9,245,277.4z M269.5,317.8c8.5,0,15.5-7.2,15.5-16.1c0-9-7-16.2-15.5-16.2s-15.5,7.2-15.5,16.2
		C254,310.6,261.1,317.8,269.5,317.8z"/>
	<path id="XMLID_17_" fill="#14233C" d="M315,334.4v-65.5h18.3l-0.2,8.8c4-6.6,10.1-10,18.8-10c13.5,0,22.3,8.5,22.3,23.5v43.2
		h-19.3v-35.5c0-9.2-2-13.3-9.4-13.3c-7.6,0-11.6,4.5-11.6,13.3v35.5H315z"/>
	<path id="XMLID_14_" fill="#14233C" d="M436.1,327.1c-5.7,5.6-11.6,7.7-19.4,7.7c-7.9,0-14.8-2.6-20.5-7.7
		c-7.6-6.7-11.5-15.5-11.5-25.7c0-9.4,3.7-17.8,10.5-24.4c6.1-6,13.5-9,21.8-9c7.9,0,14,2.7,18.4,8.3v-28.6h19.3v86.7H436v-7.3
		H436.1z M421,317.3c8.3,0,15.3-6.8,15.3-15.9c0-9.4-7-16.5-16-16.5c-9.1,0-16.2,7.4-16.2,16.2C404.1,310.4,411.1,317.3,421,317.3z"
		/>
	<path id="XMLID_11_" fill="#14233C" d="M475.6,277.4c6.6-6.6,15.3-10.2,24.2-10.2c9.5,0,17.7,3.3,24.3,9.5
		c7,6.6,10.7,15.6,10.7,24.5c0,9.9-3.3,18.1-9.9,24.6c-6.7,6.7-15,10.2-24.9,10.2c-10,0-18.1-3.4-24.8-10.5
		c-6.3-6.6-9.6-15-9.6-24.2C465.6,292.1,469.1,283.9,475.6,277.4z M500.1,317.8c8.5,0,15.5-7.2,15.5-16.1c0-9-7-16.2-15.5-16.2
		s-15.5,7.2-15.5,16.2C484.6,310.6,491.7,317.8,500.1,317.8z"/>
</g>
<g>
	<path fill="#E64B5F" d="M62,332c0,2-0.8,3.9-2.2,5.4l-34,34c-1.9,1.9-5.2,0.6-5.2-2.1V293l40.9-40.7H62V332z"/>
	<path fill="#EAD19F" d="M34.9,225.2c-1.2-1.2-3.1-1.2-4.3,0L-20,275.7h-0.7v57.1l0.7,1.5l40.6-40.6L62,252.3L34.9,225.2z"/>
	<path fill="#1E788C" d="M-102,332c0,2,0.8,3.9,2.2,5.4l34,34c1.9,1.9,5.2,0.6,5.2-2.1V293l-40.9-40.7h-0.5V332z"/>
	<path fill="#9ABDA9" d="M-70.6,225.2c-1.2-1.2-3.1-1.2-4.3,0l-27.1,27.1l41.4,41.4l40.6,40.6v-58.6L-70.6,225.2z"/>
</g>
</svg>
