<?xml version="1.0"?>
<svg version="1.1" xmlns="http://www.w3.org/2000/svg" xmlns:xlink="http://www.w3.org/1999/xlink" width="250" height="250">
    <desc iVinci="yes" version="4.6" gridStep="20" showGrid="yes" snapToGrid="no" codePlatform="0"/>
    <g id="Layer1" name="Layer 1" opacity="1">
        <g id="Shape1">
            <desc shapeID="1" type="0" basicInfo-basicType="0" basicInfo-roundedRectRadius="12" basicInfo-polygonSides="6" basicInfo-starPoints="5" bounding="rect(-41.4668,-41.4628,82.9336,82.9256)" text="" font-familyName="" font-pixelSize="20" font-bold="0" font-underline="0" font-alignment="1" strokeStyle="0" markerStart="0" markerEnd="0" shadowEnabled="0" shadowOffsetX="0" shadowOffsetY="2" shadowBlur="4" shadowOpacity="160" blurEnabled="0" blurRadius="4" transform="matrix(1,0,0,1,5808.82,42.088)" pers-center="0,0" pers-size="0,0" pers-start="0,0" pers-end="0,0" locked="0" mesh="" flag=""/>
            <path id="shapePath1" d="M5850.29,42.088 C5850.29,64.9875 5831.74,83.5508 5808.82,83.5508 C5785.91,83.5508 5767.36,64.9875 5767.36,42.088 C5767.36,19.1925 5785.91,0.625229 5808.82,0.625229 C5831.74,0.625229 5850.29,19.1925 5850.29,42.088 Z" style="stroke:#4a4648;stroke-opacity:1;stroke-width:3.09886;stroke-linejoin:;stroke-miterlimit:2;stroke-linecap:butt;fill:none;"/>
        </g>
        <g id="Shape2">
            <desc shapeID="2" type="0" basicInfo-basicType="0" basicInfo-roundedRectRadius="12" basicInfo-polygonSides="6" basicInfo-starPoints="5" bounding="rect(-41.4668,-41.4628,82.9336,82.9256)" text="" font-familyName="" font-pixelSize="20" font-bold="0" font-underline="0" font-alignment="1" strokeStyle="0" markerStart="0" markerEnd="0" shadowEnabled="0" shadowOffsetX="0" shadowOffsetY="2" shadowBlur="4" shadowOpacity="160" blurEnabled="0" blurRadius="4" transform="matrix(1,0,0,1,5875.06,42.088)" pers-center="0,0" pers-size="0,0" pers-start="0,0" pers-end="0,0" locked="0" mesh="" flag=""/>
            <path id="shapePath2" d="M5916.52,42.088 C5916.52,64.9875 5897.97,83.5508 5875.06,83.5508 C5852.19,83.5508 5833.59,64.9875 5833.59,42.088 C5833.59,19.1925 5852.19,0.625229 5875.06,0.625229 C5897.97,0.625229 5916.52,19.1925 5916.52,42.088 Z" style="stroke:#4a4648;stroke-opacity:1;stroke-width:3.09886;stroke-linejoin:;stroke-miterlimit:2;stroke-linecap:butt;fill:none;"/>
        </g>
        <g id="Shape3">
            <desc shapeID="3" type="0" basicInfo-basicType="0" basicInfo-roundedRectRadius="12" basicInfo-polygonSides="6" basicInfo-starPoints="5" bounding="rect(-89.1658,-114.586,178.332,229.172)" text="" font-familyName="" font-pixelSize="20" font-bold="0" font-underline="0" font-alignment="1" strokeStyle="0" markerStart="0" markerEnd="0" shadowEnabled="0" shadowOffsetX="0" shadowOffsetY="2" shadowBlur="4" shadowOpacity="160" blurEnabled="0" blurRadius="4" transform="matrix(1,0,0,1,125,125)" pers-center="0,0" pers-size="0,0" pers-start="0,0" pers-end="0,0" locked="0" mesh="" flag=""/>
            <path id="shapePath3" d="M74.1669,150.41 C74.1669,122.336 96.9252,99.5864 125,99.5864 C153.075,99.5864 175.833,122.336 175.833,150.41 C175.833,178.486 153.075,201.248 125,201.248 C96.9252,201.248 74.1669,178.486 74.1669,150.41 M35.8342,150.41 C35.8342,199.661 75.7561,239.586 125,239.586 C174.244,239.586 214.166,199.661 214.166,150.41 C214.166,122.023 200.875,96.7487 180.198,80.4105 C200.875,64.0862 214.166,38.8093 214.166,10.4142 L175.833,10.4142 C175.833,38.4894 153.075,61.2486 125,61.2486 C75.7561,61.2486 35.8342,101.173 35.8342,150.41 Z" style="stroke:none;fill-rule:nonzero;fill:#f36618;fill-opacity:1;"/>
        </g>
        <g id="Shape4">
            <desc shapeID="4" type="0" basicInfo-basicType="0" basicInfo-roundedRectRadius="12" basicInfo-polygonSides="6" basicInfo-starPoints="5" bounding="rect(-31.1344,-15.0879,62.2688,30.1759)" text="" font-familyName="" font-pixelSize="20" font-bold="0" font-underline="0" font-alignment="1" strokeStyle="0" markerStart="0" markerEnd="0" shadowEnabled="0" shadowOffsetX="0" shadowOffsetY="2" shadowBlur="4" shadowOpacity="160" blurEnabled="0" blurRadius="4" transform="matrix(1,0,0,1,160.604,95.4984)" pers-center="0,0" pers-size="0,0" pers-start="0,0" pers-end="0,0" locked="0" mesh="" flag=""/>
            <path id="shapePath4" d="M132.414,100.124 L129.469,99.774 C147.44,98.2977 166.834,90.9739 180.198,80.4105 C184.36,83.6992 188.225,87.3481 191.738,91.3112 C181.771,100.198 169.791,106.872 156.572,110.586 C149.731,105.161 141.462,101.449 132.414,100.124 Z" style="stroke:none;fill-rule:nonzero;fill:#f0401e;fill-opacity:1;"/>
        </g>
    </g>
</svg>
