<svg xmlns="http://www.w3.org/2000/svg" xmlns:xlink="http://www.w3.org/1999/xlink" version="1.1" x="0px" y="0px" viewBox="0 0 100 100" style="enable-background:new 0 0 100 100;" xml:space="preserve"><g><path d="M47.739,54.837h3.07c0.345,0,0.624-0.279,0.624-0.624v-3.07c0-0.345-0.279-0.624-0.624-0.624h-3.07   c-0.345,0-0.624,0.279-0.624,0.624v3.07C47.116,54.558,47.395,54.837,47.739,54.837z M48.363,51.768h1.823v1.822h-1.823V51.768z"></path><path d="M63.089,56.66h-3.07c-0.345,0-0.624,0.279-0.624,0.624v3.071c0,0.345,0.279,0.624,0.624,0.624h3.07   c0.345,0,0.624-0.279,0.624-0.624v-3.071C63.713,56.939,63.434,56.66,63.089,56.66z M62.465,59.732h-1.823v-1.824h1.823V59.732z"></path><path d="M59.395,45.003v3.071c0,0.345,0.279,0.624,0.624,0.624h3.07c0.345,0,0.624-0.279,0.624-0.624v-3.071   c0-0.345-0.279-0.624-0.624-0.624h-3.07C59.674,44.379,59.395,44.658,59.395,45.003z M60.643,45.627h1.823v1.824h-1.823V45.627z"></path><path d="M63.089,50.52h-3.07c-0.345,0-0.624,0.279-0.624,0.624v3.07c0,0.345,0.279,0.624,0.624,0.624h3.07   c0.345,0,0.624-0.279,0.624-0.624v-3.07C63.713,50.799,63.434,50.52,63.089,50.52z M62.465,53.59h-1.823v-1.822h1.823V53.59z"></path><path d="M53.256,45.003v3.071c0,0.345,0.279,0.624,0.624,0.624h3.069c0.345,0,0.624-0.279,0.624-0.624v-3.071   c0-0.345-0.279-0.624-0.624-0.624H53.88C53.535,44.379,53.256,44.658,53.256,45.003z M56.325,47.451h-1.821v-1.824h1.821V47.451z"></path><path d="M56.949,56.66H53.88c-0.345,0-0.624,0.279-0.624,0.624v3.071c0,0.345,0.279,0.624,0.624,0.624h3.069   c0.345,0,0.624-0.279,0.624-0.624v-3.071C57.573,56.939,57.294,56.66,56.949,56.66z M56.325,59.732h-1.821v-1.824h1.821V59.732z"></path><path d="M47.739,48.698h3.07c0.345,0,0.624-0.279,0.624-0.624v-3.071c0-0.345-0.279-0.624-0.624-0.624h-3.07   c-0.345,0-0.624,0.279-0.624,0.624v3.071C47.116,48.419,47.395,48.698,47.739,48.698z M48.363,45.627h1.823v1.824h-1.823V45.627z"></path><path d="M56.949,50.52H53.88c-0.345,0-0.624,0.279-0.624,0.624v3.07c0,0.345,0.279,0.624,0.624,0.624h3.069   c0.345,0,0.624-0.279,0.624-0.624v-3.07C57.573,50.799,57.294,50.52,56.949,50.52z M56.325,53.59h-1.821v-1.822h1.821V53.59z"></path><path d="M56.949,33.346h3.07c0.345,0,0.624-0.279,0.624-0.624v-3.07c0-0.345-0.279-0.624-0.624-0.624h-3.07   c-0.345,0-0.624,0.279-0.624,0.624v3.07C56.325,33.067,56.604,33.346,56.949,33.346z M57.573,30.276h1.823v1.823h-1.823V30.276z"></path><path d="M51.433,60.355v-3.071c0-0.345-0.279-0.624-0.624-0.624h-3.07c-0.345,0-0.624,0.279-0.624,0.624v3.071   c0,0.345,0.279,0.624,0.624,0.624h3.07C51.154,60.979,51.433,60.7,51.433,60.355z M48.363,57.908h1.823v1.824h-1.823V57.908z"></path><path d="M56.949,39.486h3.07c0.345,0,0.624-0.279,0.624-0.624v-3.07c0-0.345-0.279-0.624-0.624-0.624h-3.07   c-0.345,0-0.624,0.279-0.624,0.624v3.07C56.325,39.208,56.604,39.486,56.949,39.486z M57.573,36.417h1.823v1.822h-1.823V36.417z"></path><path d="M50.81,33.346h3.07c0.345,0,0.624-0.279,0.624-0.624v-3.07c0-0.345-0.279-0.624-0.624-0.624h-3.07   c-0.345,0-0.624,0.279-0.624,0.624v3.07C50.186,33.067,50.465,33.346,50.81,33.346z M51.433,30.276h1.823v1.823h-1.823V30.276z"></path><path d="M50.81,39.486h3.07c0.345,0,0.624-0.279,0.624-0.624v-3.07c0-0.345-0.279-0.624-0.624-0.624h-3.07   c-0.345,0-0.624,0.279-0.624,0.624v3.07C50.186,39.208,50.465,39.486,50.81,39.486z M51.433,36.417h1.823v1.822h-1.823V36.417z"></path><path d="M93.773,56.293l-0.763-0.495c-2.188-1.412-4.078-2.632-4.437-4.326c-0.231-1.089,0.163-2.393,1.207-3.989   c0.188-0.288,0.107-0.674-0.182-0.863l-14.777-9.664c-0.138-0.09-0.306-0.122-0.47-0.088c-0.162,0.035-0.305,0.132-0.395,0.272   l-4.103,6.344v-1.552c0-0.163-0.063-0.319-0.177-0.436l-3.07-3.151c-0.118-0.12-0.279-0.188-0.447-0.188h-2.446v-8.505   c0-0.097-0.023-0.192-0.066-0.279l-3.07-6.139c-0.106-0.211-0.322-0.345-0.558-0.345h-2.446v-3.004   c0-0.345-0.279-0.624-0.624-0.624H53.88c-0.345,0-0.624,0.279-0.624,0.624v3.004h-2.454c-0.236,0-0.452,0.134-0.558,0.345   l-3.063,6.139c-0.044,0.087-0.066,0.182-0.066,0.278v8.505h-2.448c-0.168,0-0.329,0.068-0.447,0.188l-3.07,3.151   c-0.113,0.117-0.177,0.273-0.177,0.436v14.357c-1.313-1.08-2.779-1.984-4.355-2.701l-0.271-3.22l-0.32-0.155   c-0.105-0.051-2.503-1.138-7.216-1.215c-0.023-0.003-0.042-0.014-0.066-0.014c-0.174-0.003-0.32,0.006-0.488,0.006   c-0.144,0-0.269-0.008-0.417-0.006c-0.02,0-0.037,0.01-0.056,0.012c-4.737,0.065-7.121,1.167-7.226,1.218l-0.32,0.155l-0.275,3.261   C13.795,56.473,9.4,62.339,8.838,69.25H6.493c-0.345,0-0.624,0.279-0.624,0.624v6.155c0,0.345,0.279,0.624,0.624,0.624h43.683   c0.345,0,0.624-0.279,0.624-0.624v-3.921h10.805l-2.512,3.841l6.896,4.509l15.283-23.37l8.392,5.488   c0.102,0.067,0.221,0.102,0.341,0.102c0.043,0,0.085-0.004,0.128-0.013c0.162-0.034,0.303-0.13,0.395-0.269l3.426-5.239   C94.142,56.868,94.062,56.482,93.773,56.293z M81.955,56.045L81.955,56.045l-4.401-2.878l-7.7-5.036l-0.624-0.408l-0.443-0.29   l0.443-0.686l0.624-0.965l4.81-7.439l13.743,8.988c-0.984,1.662-1.328,3.107-1.054,4.401c0.468,2.202,2.56,3.553,4.982,5.116   l0.233,0.151l-2.741,4.193L81.955,56.045z M60.821,75.588l2.275-3.48l0.408-0.624l0.408-0.624l4.694-7.179l0.624-0.954l0.624-0.954   l5.567-8.513l4.808,3.145L65.628,78.733L60.821,75.588z M49.552,72.109v3.297H7.117v-4.907h1.657h0.623h0.624h30.953h0.624h0.624   h4.428h0.623h0.624h1.655v0.363v0.624V72.109z M19.843,55.059l-0.981,11.65c-0.029,0.344,0.225,0.645,0.569,0.674   c0.018,0.002,0.035,0.002,0.054,0.002c0.32,0,0.593-0.246,0.62-0.571l0.219-2.599l0.823-9.763l0.058-0.693l0.057-0.676l0.158-1.874   c0.492-0.182,1.57-0.516,3.198-0.744v1.67v0.628v0.634v4.517c0,0.345,0.279,0.624,0.624,0.624c0.345,0,0.624-0.279,0.624-0.624   v-4.704v-0.631v-0.629v-1.626c0.736-0.063,1.565-0.095,2.471-0.09c0.653-0.002,1.262,0.016,1.825,0.051v1.587v0.623v0.624v4.795   c0,0.345,0.279,0.624,0.624,0.624c0.345,0,0.624-0.279,0.624-0.624v-4.615v-0.631v-0.629v-1.647   c1.948,0.223,3.21,0.615,3.757,0.817l0.155,1.843l0.057,0.677l0.058,0.686l0.935,11.095l0.11,1.306   c0.027,0.325,0.3,0.571,0.62,0.571c0.018,0,0.035-0.001,0.054-0.002c0.344-0.029,0.598-0.33,0.569-0.674L36.74,55.018   c1.556,0.78,2.978,1.769,4.234,2.929c0.213,0.197,0.42,0.399,0.624,0.605c0.213,0.217,0.422,0.437,0.624,0.664   c2.443,2.746,4.03,6.217,4.362,10.034h-4.362h-0.624h-0.624H10.086C10.624,63.08,14.438,57.806,19.843,55.059z M50.176,69.25   h-2.344c-0.374-4.606-2.439-8.756-5.61-11.853V42.185l2.71-2.78h2.808c0.345,0,0.624-0.279,0.624-0.624V29.8l2.825-5.662h2.691   c0.345,0,0.624-0.279,0.624-0.624v-3.004h1.821v3.004c0,0.345,0.279,0.624,0.624,0.624h2.685l2.831,5.663v8.981   c0,0.345,0.279,0.624,0.624,0.624h2.807l2.71,2.78v3.228l-1.205,1.863c-0.186,0.288-0.105,0.673,0.183,0.861l1.022,0.669v12.598   l-6.185,9.457H50.8v-0.987C50.8,69.529,50.521,69.25,50.176,69.25z M69.853,59.496v-9.875l4.523,2.958L69.853,59.496z"></path></g></svg>