<svg xmlns="http://www.w3.org/2000/svg" xmlns:xlink="http://www.w3.org/1999/xlink" version="1.1" x="0px" y="0px" viewBox="0 0 100 100" enable-background="new 0 0 100 100" xml:space="preserve"><g><path d="M72.691,83.367l-7.48-24.83h4.24c0.54,0,0.98-0.44,0.98-0.99c0-0.54-0.44-0.99-0.98-0.99h-4.83l-9.34-30.98   c1.6-1.49,2.6-3.62,2.6-5.98c0-3.06-1.69-5.74-4.18-7.14v-10.8c0-0.55-0.44-0.99-0.99-0.99h-5.51c-0.55,0-0.99,0.44-0.99,0.99   v10.53c-2.79,1.3-4.72,4.13-4.72,7.41c0,2.61,1.22,4.93,3.13,6.43l-9.19,30.53h-4.96c-0.55,0-0.99,0.45-0.99,0.99   c0,0.55,0.44,0.99,0.99,0.99h4.36l-7.46,24.8c-0.01,0.01-0.02,0.02-0.01,0.03c-0.02,0.05-0.02,0.1-0.03,0.14   c-0.02,0.04-0.02,0.09-0.02,0.14l-0.04,14.52c0,0.49,0.36,0.91,0.85,0.98c0.05,0,0.09,0.01,0.14,0.01c0.43,0,0.82-0.29,0.95-0.72   l3.69-13.06l0.02-0.06l8.14-26.78h7.73v2.5c0,0.55,0.44,0.99,0.98,0.99c0.55,0,0.99-0.44,0.99-0.99v-2.5h8.22l8.06,26.51   c0,0.09,0.01,0.18,0.04,0.27l3.71,13.12c0.12,0.43,0.51,0.72,0.95,0.72c0.05,0,0.09-0.01,0.14-0.01c0.49-0.07,0.85-0.49,0.85-0.98   l-0.05-14.2C72.741,83.777,72.751,83.567,72.691,83.367z M48.191,2.637h3.54v9.03c-0.65-0.17-1.34-0.26-2.04-0.26   c-0.51,0-1.01,0.05-1.5,0.14V2.637z M43.471,19.597c0-3.43,2.79-6.22,6.22-6.22s6.22,2.79,6.22,6.22c0,3.43-2.79,6.22-6.22,6.22   S43.471,23.027,43.471,19.597z M29.271,90.987l0.01-5.9l1.5,0.56L29.271,90.987z M31.341,83.747l-1.83-0.69l7.38-24.52h2.11   L31.341,83.747z M39.601,56.557h-2.11l8.87-29.47c0.63,0.28,1.31,0.49,2.01,0.61L39.601,56.557z M50.761,56.557v-2.5   c0-0.55-0.44-0.99-0.99-0.99c-0.54,0-0.98,0.44-0.98,0.99v2.5h-7.12l8.35-27.49l8.36,27.49H50.761z M51.631,27.567   c0.69-0.17,1.35-0.43,1.96-0.76l8.96,29.75h-2.11L51.631,27.567z M61.051,58.537h2.1l7.38,24.5v0.02l-1.82,0.69v-0.01   L61.051,58.537z M69.221,85.667v-0.02l1.49-0.56v0.01l0.02,5.89L69.221,85.667z"></path><polygon points="70.711,85.087 70.711,85.097 69.221,85.667 69.221,85.647  "></polygon><path d="M49.69,23.176c-1.973,0-3.577-1.605-3.577-3.578s1.604-3.578,3.577-3.578c1.973,0,3.577,1.605,3.577,3.578   S51.663,23.176,49.69,23.176z M49.69,17.995c-0.884,0-1.603,0.719-1.603,1.604s0.719,1.604,1.603,1.604s1.603-0.719,1.603-1.604   S50.575,17.995,49.69,17.995z"></path><path d="M68.711,83.737v0.01l1.82-0.69v-0.02L68.711,83.737z"></path></g></svg>