<svg xmlns="http://www.w3.org/2000/svg" xmlns:xlink="http://www.w3.org/1999/xlink" version="1.1" x="0px" y="0px" viewBox="0 0 100 100" enable-background="new 0 0 100 100" xml:space="preserve"><g><path d="M43.75,9.5h-20c-2.206,0-4,1.794-4,4V91c0,2.206,1.794,4,4,4h20c2.206,0,4-1.794,4-4V13.5   C47.75,11.294,45.956,9.5,43.75,9.5z M43.75,92h-20c-0.551,0-1-0.448-1-1V13.5c0-0.551,0.449-1,1-1h20c0.551,0,1,0.449,1,1V17h-8.5   c-0.829,0-1.5,0.671-1.5,1.5s0.671,1.5,1.5,1.5h8.5v4.5h-8.5c-0.829,0-1.5,0.671-1.5,1.5s0.671,1.5,1.5,1.5h8.5V32h-11   c-0.829,0-1.5,0.671-1.5,1.5s0.671,1.5,1.5,1.5h11v4.5h-8.5c-0.829,0-1.5,0.671-1.5,1.5s0.671,1.5,1.5,1.5h8.5V47h-8.5   c-0.829,0-1.5,0.671-1.5,1.5s0.671,1.5,1.5,1.5h8.5v4.5h-8.5c-0.829,0-1.5,0.672-1.5,1.5s0.671,1.5,1.5,1.5h8.5V62h-8.5   c-0.829,0-1.5,0.672-1.5,1.5s0.671,1.5,1.5,1.5h8.5v4.5h-11c-0.829,0-1.5,0.672-1.5,1.5s0.671,1.5,1.5,1.5h11V77h-8.5   c-0.829,0-1.5,0.672-1.5,1.5s0.671,1.5,1.5,1.5h8.5v4.5h-8.5c-0.829,0-1.5,0.672-1.5,1.5s0.671,1.5,1.5,1.5h8.5V91   C44.75,91.552,44.301,92,43.75,92z"></path><path d="M71.25,7c-4.963,0-9,4.038-9,9v60.21l0.058,0.202C67.618,95,70.257,95,71.25,95c4.22,0,7.428-11.702,8.965-18.678   l0.035-0.159V16C80.25,11.038,76.213,7,71.25,7z M71.25,10c2.79,0,5.134,1.917,5.803,4.5H65.447C66.116,11.917,68.46,10,71.25,10z    M71.407,91.872c-1.276-1.479-3.747-8.063-5.651-14.372h5.494c0.828,0,1.5-0.672,1.5-1.5s-0.672-1.5-1.5-1.5h-6v-57h12v58.336   C75.542,83.524,72.91,90.696,71.407,91.872z"></path></g></svg>